<svg width="77" height="73" viewBox="0 0 77 73" fill="none" xmlns="http://www.w3.org/2000/svg">
<path d="M26.1562 5.14062C26.1562 6.48438 30.0625 7.15625 37.875 7.15625C41.625 7.15625 46.2344 6.98438 51.7031 6.64062C57.2031 6.26562 60.5156 5.875 61.6406 5.46875C62.7969 5.0625 63.7812 4.5625 64.5938 3.96875C65.4062 3.34375 66 2.8125 66.375 2.375C67.375 1.21875 68.6719 0.640625 70.2656 0.640625C71.8906 0.640625 73.3594 0.953125 74.6719 1.57812C75.9844 2.17188 76.6406 3 76.6406 4.0625C76.6406 5.09375 76.1875 6.15625 75.2812 7.25C74.375 8.34375 73.4219 9.25 72.4219 9.96875C71.4219 10.6562 70.3125 11.3594 69.0938 12.0781C67.9062 12.7969 67.2188 13.2344 67.0312 13.3906C66.8438 13.5469 66.0625 14.2188 64.6875 15.4062C58.7812 20.3438 49.4688 28.8438 36.75 40.9062C24.0625 52.9688 16.3125 60.4062 13.5 63.2188C16.9375 62.4375 21.5312 61.6562 27.2812 60.875C33.0312 60.0938 38.3594 59.7031 43.2656 59.7031C48.2031 59.7031 51.9844 60.2344 54.6094 61.2969C57.2656 62.3281 58.5938 64.125 58.5938 66.6875C58.5938 67.9062 58.3125 69.1719 57.75 70.4844C57.2188 71.7656 56.7656 72.4062 56.3906 72.4062C56.2656 72.4062 56.1406 72.2031 56.0156 71.7969C55.8906 71.4219 55.7656 71.1875 55.6406 71.0938C54.1719 70.125 51.5312 69.6406 47.7188 69.6406C43.9375 69.6406 37.5469 70.0156 28.5469 70.7656C19.5781 71.4844 13.9844 71.9688 11.7656 72.2188C9.57812 72.4688 8.14062 72.5938 7.45312 72.5938C5.48438 72.5938 3.875 71.9219 2.625 70.5781C1.375 69.2031 0.75 67.9844 0.75 66.9219L1.125 65.4219C1.125 63.9219 4.76563 59.4375 12.0469 51.9688C19.3594 44.5 27.1406 37 35.3906 29.4688C43.6719 21.9062 49.7812 16.5781 53.7188 13.4844C51 14.2656 47.5781 14.9688 43.4531 15.5938C39.3281 16.1875 35.4375 16.4844 31.7812 16.4844C22.6562 16.4844 18.0938 14.5 18.0938 10.5312C18.0938 9.21875 18.4531 8.03125 19.1719 6.96875C19.9219 5.90625 20.8125 5.09375 21.8438 4.53125C23.9062 3.375 25.3906 2.79688 26.2969 2.79688C27.2344 2.79688 27.7031 3 27.7031 3.40625C27.7031 3.59375 27.4375 3.875 26.9062 4.25C26.4062 4.625 26.1562 4.92187 26.1562 5.14062Z" fill="#8000FF"/>
</svg>
