<svg width="203" height="220" viewBox="0 0 203 220" fill="none" xmlns="http://www.w3.org/2000/svg">
<ellipse cx="118" cy="135.5" rx="85" ry="84.5" fill="#D5E6FF"/>
<ellipse cx="118" cy="135.5" rx="85" ry="84.5" fill="#D5E6FF"/>
<ellipse cx="118" cy="135.5" rx="85" ry="84.5" fill="#D5E6FF"/>
<ellipse cx="118" cy="135.5" rx="85" ry="84.5" fill="#D5E6FF"/>
<circle cx="84.5" cy="114.5" r="84.5" fill="#D5E6FF"/>
<circle cx="84.5" cy="114.5" r="84.5" fill="#D5E6FF"/>
<circle cx="84.5" cy="114.5" r="84.5" fill="#D5E6FF"/>
<circle cx="84.5" cy="114.5" r="84.5" fill="#D5E6FF"/>
<circle cx="103.5" cy="84.5" r="84.5" fill="#D5E6FF"/>
<circle cx="103.5" cy="84.5" r="84.5" fill="#D5E6FF"/>
<circle cx="103.5" cy="84.5" r="84.5" fill="#D5E6FF"/>
<circle cx="103.5" cy="84.5" r="84.5" fill="#D5E6FF"/>
<ellipse cx="107.5" cy="110" rx="74.5" ry="74" fill="#AECFFF"/>
<path d="M90.875 64.1875C90.875 65.9792 96.0833 66.875 106.5 66.875C111.5 66.875 117.646 66.6458 124.938 66.1875C132.271 65.6875 136.688 65.1667 138.188 64.625C139.729 64.0833 141.042 63.4167 142.125 62.625C143.208 61.7917 144 61.0833 144.5 60.5C145.833 58.9583 147.562 58.1875 149.688 58.1875C151.854 58.1875 153.812 58.6042 155.562 59.4375C157.312 60.2292 158.188 61.3333 158.188 62.75C158.188 64.125 157.583 65.5417 156.375 67C155.167 68.4583 153.896 69.6667 152.562 70.625C151.229 71.5417 149.75 72.4792 148.125 73.4375C146.542 74.3958 145.625 74.9792 145.375 75.1875C145.125 75.3958 144.083 76.2917 142.25 77.875C134.375 84.4583 121.958 95.7917 105 111.875C88.0833 127.958 77.75 137.875 74 141.625C78.5833 140.583 84.7083 139.542 92.375 138.5C100.042 137.458 107.146 136.938 113.688 136.938C120.271 136.938 125.312 137.646 128.812 139.062C132.354 140.438 134.125 142.833 134.125 146.25C134.125 147.875 133.75 149.562 133 151.312C132.292 153.021 131.688 153.875 131.188 153.875C131.021 153.875 130.854 153.604 130.688 153.062C130.521 152.562 130.354 152.25 130.188 152.125C128.229 150.833 124.708 150.188 119.625 150.188C114.583 150.188 106.062 150.688 94.0625 151.688C82.1042 152.646 74.6458 153.292 71.6875 153.625C68.7708 153.958 66.8542 154.125 65.9375 154.125C63.3125 154.125 61.1667 153.229 59.5 151.438C57.8333 149.604 57 147.979 57 146.562L57.5 144.562C57.5 142.562 62.3542 136.583 72.0625 126.625C81.8125 116.667 92.1875 106.667 103.188 96.625C114.229 86.5417 122.375 79.4375 127.625 75.3125C124 76.3542 119.438 77.2917 113.938 78.125C108.438 78.9167 103.25 79.3125 98.375 79.3125C86.2083 79.3125 80.125 76.6667 80.125 71.375C80.125 69.625 80.6042 68.0417 81.5625 66.625C82.5625 65.2083 83.75 64.125 85.125 63.375C87.875 61.8333 89.8542 61.0625 91.0625 61.0625C92.3125 61.0625 92.9375 61.3333 92.9375 61.875C92.9375 62.125 92.5833 62.5 91.875 63C91.2083 63.5 90.875 63.8958 90.875 64.1875Z" fill="#8000FF"/>
</svg>
